PathFileType	4	(X/Y/Z)	Patient4_TMGait_0pt4_01_right_29.trc.trc
DataRate	CameraRate	NumFrames	NumMarkers	Units	OrigDataRate	OrigDataStartFrame	OrigNumFrames
74.074074074074	74.074074074074	4	33	mm	74.074074074074	53	       141
Frame#	Time	Sacral			L.Shoulder			Chest			R.Shoulder			Neck			R.ASIS			L.ASIS			R.Thigh.Superior			R.Thigh.Lateral			R.Thigh.Inferior			R.Patella			L.Thigh.Superior			L.Thigh.Lateral			L.Thigh.Inferior			L.Patella			L.Shank.Superior			L.Shank.Lateral			L.Shank.Inferior			R.Shank.Superior			R.Shank.Lateral			R.Shank.Inferior			R.Heel			R.Midfoot.Superior			R.Midfoot.Lateral			R.Toe			L.Heel			L.Midfoot.Lateral			L.Midfoot.Superior			L.Toe			L.Elbow			L.Wrist			R.Elbow			R.Wrist			
		X1	Y1	Z1	X2	Y2	Z2	X3	Y3	Z3	X4	Y4	Z4	X5	Y5	Z5	X6	Y6	Z6	X7	Y7	Z7	X8	Y8	Z8	X9	Y9	Z9	X10	Y10	Z10	X11	Y11	Z11	X12	Y12	Z12	X13	Y13	Z13	X14	Y14	Z14	X15	Y15	Z15	X16	Y16	Z16	X17	Y17	Z17	X18	Y18	Z18	X19	Y19	Z19	X20	Y20	Z20	X21	Y21	Z21	X22	Y22	Z22	X23	Y23	Z23	X24	Y24	Z24	X25	Y25	Z25	X26	Y26	Z26	X27	Y27	Z27	X28	Y28	Z28	X29	Y29	Z29	X30	Y30	Z30	X31	Y31	Z31	X32	Y32	Z32	X33	Y33	Z33	

53	38.112000000000	908.165861833640	1007.742523499763	564.701495636082	1075.474758721440	1441.746088706850	381.872569629739	1189.044783911530	1371.752012788665	534.600374318958	1117.382979409038	1441.560482503235	714.951602305720	1070.553958156612	1499.969068361969	539.031075679212	1144.558779545872	943.960076811553	665.861826646003	1113.269164176691	972.824644985997	394.345527942994	1171.878667061326	739.150815568366	632.255977490276	1086.850973346845	632.950049528715	695.295871254439	1157.932791369065	578.162693609392	612.950264398600	1152.663261190892	492.101765698853	618.144626195866	1198.519682773662	789.633484642388	415.019779048220	1153.437912935845	662.281398777211	335.499179253445	1260.806103098680	603.408980851682	390.096226959049	1280.732218013221	522.137952359982	380.977832263337	1234.165901731238	448.294938558664	372.732765730424	1113.532576813285	363.842210930631	326.293259581658	1148.820496706706	235.756973475393	375.418557659927	1123.069612208326	403.571906252847	624.532107422178	1049.669258800677	301.066201632925	685.514443477906	1088.555454343306	205.901131814957	620.126861295758	951.834447227591	43.768164443049	585.870647357135	1121.863369280628	96.998574007070	626.515821599461	1033.317226278281	36.928914636185	663.379065868860	1241.832484263899	43.747172776786	657.618752259844	996.211352268090	107.947528775173	417.658777707165	1060.734976932901	88.776034551975	332.520312085888	1156.859536975967	132.331385122873	350.521275116740	1266.625235424281	57.128063647212	312.374751650800	1010.456251539076	1094.862612992946	266.634725281455	1076.224197729601	843.895634974232	226.939299800450	1119.273348502651	1107.393502163151	863.604155965135	1293.902765246294	915.808448551631	850.541326590523	
54	38.125500000000	907.358386801282	1008.371683489211	566.454523397897	1073.942775023017	1442.109418850771	383.115010974038	1189.077291844231	1371.536872039684	534.392484323254	1119.714472966894	1441.343697545780	715.609893774042	1070.913851098739	1500.065414074417	540.214829885705	1144.272473320835	943.586374559742	665.358038536430	1111.027790757172	973.279105727378	394.164312009023	1169.326514200219	738.550179735253	631.380742040844	1084.025090794808	632.921474552076	695.460743861064	1153.816200957204	577.599585907766	612.572961514515	1147.921236527202	491.788940641156	617.994076742739	1196.206501622944	790.599818261329	415.476300945973	1152.358236760166	663.292646508838	335.368933261525	1258.918260911209	604.606473594908	391.556688523469	1280.525469049099	525.338445311681	381.968332569333	1237.908375565825	451.046776415788	372.915107215125	1123.588108682909	359.308551879321	324.981714642271	1166.875660937232	233.262748431466	373.864897612170	1118.225893368294	403.434582327815	624.513618405136	1044.749010209395	300.986771395424	685.586013129724	1083.323786014373	205.775226700464	620.089459619066	946.416270520764	43.757585775185	585.903308806179	1116.406622123215	96.951679833254	626.516706476868	1027.883993278179	36.916503892687	663.394083193709	1236.380785022298	43.705415817754	657.639823484995	1022.805300167015	95.780710284405	414.799637947279	1088.991964943307	80.730122921001	330.088577146542	1182.264443777912	129.938369314773	348.672093458931	1296.685075543439	61.584812223426	311.261736296671	1005.919528003236	1095.738996436362	268.142457945689	1069.474186993903	844.405931699636	227.227667059537	1125.620214202596	1107.722804151824	864.964505480344	1302.966295806070	918.826937277154	849.562996173597	
55	38.139000000000	906.633971352660	1008.872525454880	568.017752778560	1072.480484450163	1442.388765364726	384.183804182838	1189.084058289018	1371.243403760321	534.059450712497	1121.902038495079	1441.012255300424	716.088829963046	1071.250853299407	1500.070336193195	541.228613502987	1144.010400343458	943.199130467739	664.763020625699	1108.916023799514	973.577208426187	393.862434962580	1166.889487829853	737.937516522998	630.577954390043	1081.269093477403	632.874647879145	695.615642190552	1149.810839346314	577.037146129443	612.234522775155	1143.281890776143	491.463052517554	617.874164877602	1193.640010195189	791.041109886674	415.950204354540	1150.952700045283	663.959462205831	335.063245547516	1256.429726801400	605.197899470384	393.116046765324	1279.636640284876	528.084145854893	383.088056612884	1240.971621272901	453.614088347393	373.219144734248	1133.498278951375	354.992194506243	323.511781268307	1184.397911182445	231.477956825968	372.482097176888	1113.467670884799	403.292377615795	624.508919823237	1039.889232444043	300.906919817310	685.673312285398	1078.128991505579	205.645766158104	620.058050802579	941.001286181496	43.747769096892	585.944568955052	1110.952887535667	96.897163224348	626.513100076419	1022.452736756220	36.904615333100	663.409262157728	1230.934775041648	43.650309454591	657.658028672666	1049.115015932409	85.176930803577	411.824863558432	1117.060697262591	73.888263748838	327.875185226512	1207.243794673056	128.408626626242	347.209842269015	1325.895891276361	66.660866994693	311.246244073647	1001.706591017891	1096.506791662715	269.483393533142	1063.203731969757	844.852079494029	227.450688403014	1131.707611725082	1107.924482757735	866.012176075915	1311.635081361861	921.716620051448	848.219309295823	
56	38.152500000000	906.016788109756	1009.238716203635	569.386522290412	1071.098044366727	1442.595989838785	385.058591314394	1189.050953848809	1370.897531581055	533.609565683830	1123.894480565717	1440.596997523603	716.386119869900	1071.546413068671	1500.001330812910	542.053174073415	1143.782999250635	942.813557040417	664.100786592858	1106.959983835632	973.731198383553	393.453426217201	1164.605584596219	737.317295598916	629.884262302296	1078.586031242741	632.813556053159	695.750535682372	1145.943290146731	576.478668399744	611.943060655459	1138.767210635540	491.124812047715	617.775667437640	1190.901085238418	791.024460563625	416.413650816823	1149.284420727764	664.321993248096	334.588913612335	1253.513983478748	605.283441584762	394.632246270454	1278.209300327534	530.404310993829	384.246678855379	1243.414510784070	455.993906166350	373.598166515099	1143.093743633319	351.048725251465	321.958583303303	1201.048509442638	230.461907703331	371.327091203858	1108.806317827985	403.137852877639	624.504048744915	1035.094320001590	300.836122020846	685.765921148329	1072.979348114800	205.516454528282	620.029084030218	935.587178739889	43.740854789691	585.993610081462	1105.503944942344	96.837599252501	626.504489272653	1017.022018469058	36.895533041031	663.425082232009	1225.494087610410	43.586794074064	657.675402251994	1074.528560181275	76.383504571239	408.907903987170	1144.309777636724	68.375519818640	326.023600348602	1231.279955430386	127.759099861588	346.205873678529	1353.675401616212	72.190106229306	312.360363179345	997.817955418648	1097.175437119920	270.633102372592	1057.423529559359	845.238663627464	227.594384849981	1137.509304473271	1108.012054233980	866.729333250017	1319.873252477068	924.483041986980	846.512147022668	
